<svg width="70" height="70" viewBox="0 0 70 70" fill="none" xmlns="http://www.w3.org/2000/svg">
<path d="M58.8052 34.7438C58.8052 35.3785 58.7814 36.0067 58.7321 36.6269C58.7242 36.743 58.713 36.8557 58.7034 36.9688C58.7018 36.9767 58.7004 36.9846 58.7004 36.9926C58.1126 36.3425 57.482 35.7326 56.8126 35.167C55.114 33.7308 53.2008 32.6256 51.0602 31.8368C50.6004 31.6675 50.1352 31.5132 49.6654 31.374C49.104 31.2099 48.537 31.0656 47.9654 30.9415C44.8452 30.2559 41.5801 30.116 38.355 30.0618C37.7825 30.0525 37.2085 30.0476 36.6373 30.0397C35.1264 30.0205 33.6268 30.0016 32.151 29.9378C26.2253 29.6803 20.6718 28.6909 16.1217 24.0187C15.6071 23.4913 15.1219 22.9359 14.6683 22.3551V22.3535C14.708 22.2881 14.7493 22.2232 14.789 22.1578C17.0074 18.6084 20.1342 15.682 23.8446 13.7099C25.6651 12.7419 27.6043 12.016 29.6129 11.5504H29.6176C30.0627 12.0155 30.5739 12.4126 31.1347 12.7287C31.5285 12.9529 31.9449 13.1348 32.377 13.2711C33.0181 13.4757 33.6871 13.5792 34.36 13.578C35.098 13.578 35.8088 13.457 36.4687 13.2312C36.5245 13.2137 36.5784 13.1931 36.6326 13.174C37.6646 12.791 38.5842 12.1557 39.3075 11.326C45.4542 12.4503 50.7772 15.9365 54.3014 20.8076C54.8866 21.6203 55.4241 22.4679 55.9092 23.3522C57.7556 26.7382 58.8052 30.6185 58.8052 34.7438ZM55.3494 47.104C52.4438 51.8799 47.9033 55.5519 42.5058 57.3428C41.6964 56.7582 40.764 56.3665 39.78 56.1976H39.7783C39.4116 56.1348 39.0402 56.1034 38.6682 56.1037C37.6918 56.1037 36.7646 56.3186 35.9297 56.7017C35.7913 56.7655 35.6544 56.8337 35.5225 56.9084C34.7815 57.3126 34.1254 57.8558 33.5901 58.5085C33.4869 58.5038 33.3835 58.4956 33.277 58.4893C32.6997 58.4463 32.1288 58.3842 31.5641 58.3016C31.545 58.2985 31.5245 58.2969 31.5053 58.2936C31.4019 58.2796 31.2986 58.2619 31.1968 58.246C31.0838 58.2285 30.9694 58.2079 30.8547 58.1904C30.6289 58.1507 30.4031 58.1061 30.1789 58.0615C29.8417 57.9915 29.5078 57.9167 29.1755 57.831C29.0766 57.8073 28.978 57.7823 28.8796 57.7563C28.8049 57.7388 28.7349 57.718 28.6618 57.6989C28.6029 57.6813 28.5441 57.6638 28.482 57.648C28.3881 57.6225 28.2959 57.594 28.2022 57.5669C28.1083 57.5382 28.0145 57.5097 27.9222 57.481C22.3146 55.7366 17.5945 51.9752 14.6141 47.0452C14.3356 46.5842 14.0731 46.1138 13.827 45.6348C12.1412 42.3728 11.1934 38.669 11.1934 34.7438C11.1934 33.9917 11.23 33.2475 11.2968 32.5126L11.3015 32.4537C11.8964 33.1155 12.5356 33.7362 13.2147 34.3114C14.9179 35.7554 16.8342 36.8637 18.9797 37.6527C19.2151 37.7417 19.4489 37.8227 19.6842 37.8975C19.7256 37.9119 19.7653 37.9262 19.8082 37.9371C23.5886 39.1603 27.6693 39.3593 31.6865 39.4274C32.2591 39.4368 32.8331 39.4433 33.4043 39.4513C41.0379 39.5468 48.333 39.6357 54.031 45.5869C54.495 46.0707 54.935 46.5771 55.3494 47.104Z" fill="#2886FF"/>
<path d="M38.1961 7.01431C38.197 7.45356 38.1216 7.88963 37.9734 8.30309C37.4449 9.78778 36.0258 10.8507 34.3609 10.8507C32.7561 10.8507 31.3812 9.8653 30.81 8.46561C30.6206 8.00523 30.5236 7.51212 30.5244 7.01431C30.5244 6.12112 30.8289 5.29961 31.3417 4.6481C31.7002 4.18972 32.1584 3.81907 32.6816 3.56431C33.2048 3.30956 33.7792 3.1774 34.3611 3.17789C34.9131 3.17731 35.4587 3.29622 35.9605 3.52647C36.4622 3.75671 36.9081 4.09283 37.2677 4.51173C37.868 5.20715 38.1976 6.09562 38.1961 7.01431ZM42.5057 62.6674C42.5057 63.215 42.3912 63.7348 42.1834 64.2062C41.5919 65.5594 40.2403 66.504 38.669 66.504C37.4524 66.504 36.3686 65.9373 35.6657 65.0541H35.6643C35.1248 64.3758 34.8316 63.5343 34.8326 62.6676C34.8326 62.2048 34.9143 61.7625 35.0637 61.3524C35.5999 59.8808 37.0113 58.8309 38.6692 58.8309C39.2869 58.8305 39.8955 58.9793 40.4431 59.2649C40.9908 59.5505 41.4613 59.9642 41.8145 60.4709H41.8159C42.2662 61.1147 42.507 61.8817 42.5057 62.6674Z" fill="#334155"/>
<path d="M65.317 34.7443C65.317 37.9495 64.8192 41.0364 63.8965 43.9357C63.1435 42.3609 62.2365 40.8644 61.1889 39.4681V39.4667C61.4683 37.9081 61.6085 36.3277 61.6078 34.7443C61.6078 29.3674 60.0118 24.3622 57.2691 20.1771C56.6438 19.2235 55.958 18.3108 55.216 17.4448C51.5141 13.1236 46.4522 10.0031 40.6913 8.74819C40.8422 8.19616 40.9225 7.6147 40.9225 7.01433C40.9225 6.2909 40.8058 5.59409 40.5888 4.94235C46.3891 6.02306 51.6094 8.75566 55.7403 12.633C56.7044 13.5365 57.6079 14.5026 58.4449 15.525C62.7397 20.7558 65.317 27.449 65.317 34.7443ZM32.519 64.9605C24.9923 64.3513 18.2446 60.9938 13.2777 55.8919C12.5814 55.1784 11.9216 54.4302 11.3007 53.6502C7.15817 48.4664 4.68359 41.8945 4.68359 34.7443C4.68359 31.5199 5.18729 28.4125 6.11995 25.4971C6.93173 26.8941 7.86937 28.214 8.92121 29.4405C8.56868 31.1864 8.39165 32.9632 8.39277 34.7443C8.39277 39.9412 9.8819 44.7894 12.4592 48.8867C12.8446 49.5019 13.2559 50.1004 13.6922 50.6806C18.0309 56.4748 24.6775 60.4401 32.2684 61.2133C32.1617 61.6803 32.1061 62.1681 32.1061 62.6674C32.1061 63.4742 32.2509 64.2473 32.519 64.9605ZM62.3794 47.7768V47.7782C58.95 54.9709 52.7707 60.5982 45.2015 63.3014C45.222 63.0935 45.2323 62.881 45.2323 62.6674C45.2323 61.5647 44.9598 60.5265 44.4797 59.6144C50.4131 57.3519 55.3272 53.0279 58.3482 47.5176C53.9625 38.4418 47.3351 37.1472 39.5931 36.8894C39.5917 36.888 39.5901 36.888 39.5887 36.8894C39.3836 36.8824 39.1786 36.8749 38.9722 36.8705C37.9692 36.8424 36.9485 36.8308 35.9117 36.8177C31.6258 36.7649 27.0878 36.7079 22.7547 35.4822C22.626 35.4455 22.4985 35.4091 22.3696 35.3711C17.7937 33.9975 13.4652 31.2738 9.92884 25.8133C9.91856 25.8413 9.93911 25.7855 9.92884 25.8133C9.05595 24.4808 8.2683 23.1512 7.64154 21.6665C11.5557 13.4939 19.0222 7.34826 28.0439 5.23074C27.8798 5.81103 27.797 6.41129 27.798 7.01433C27.798 7.72025 27.9091 8.39955 28.1172 9.03658C21.1147 10.9066 15.2502 15.5601 11.7811 21.741C15.622 28.9529 20.6638 31.5622 26.2708 32.5359C26.8079 32.6298 27.3529 32.7087 27.9005 32.7748C30.5011 33.0882 33.2071 33.1218 35.9573 33.1569C38.8991 33.1935 41.9023 33.2316 44.8208 33.6356C45.3171 33.7047 45.8107 33.7836 46.2997 33.8761H46.3011C47.6321 34.1248 48.9398 34.466 50.2094 34.9332C52.4103 35.7428 54.3667 36.8938 56.0976 38.4021C56.102 38.4065 56.1062 38.4096 56.1106 38.4138C57.6597 39.9082 59.0213 41.5855 60.1654 43.4087C60.7918 44.4023 61.3505 45.437 61.8376 46.5058C62.0296 46.9245 62.2102 47.3483 62.3794 47.7768Z" fill="#CBD5E1"/>
<path d="M35.0001 69.9998C25.6513 69.9998 16.862 66.3593 10.2511 59.7484C3.64075 53.1381 0 44.349 0 35.0002C0 25.6512 3.64052 16.8622 10.2514 10.2513C16.8617 3.64074 25.6511 0 34.9999 0C44.3487 0 53.138 3.64051 59.7486 10.2513C66.3595 16.8619 70 25.651 70 35C70 44.3488 66.3595 53.1381 59.7486 59.7487C53.1378 66.3593 44.3487 70 34.9999 70L35.0001 69.9998ZM35.0001 2.22657C16.9288 2.22657 2.22658 16.9287 2.22658 35C2.22658 53.0713 16.9288 67.7732 35.0001 67.7732C53.0715 67.7732 67.7737 53.0711 67.7737 34.9998C67.7737 16.9285 53.0712 2.22657 35.0001 2.22657Z" fill="#CBD5E1"/>
</svg>
